{"title":"Snitch(2013)MPEG-4[DaScubaDude]","uid":15398015,"size":1204936503,"categoryP":"video","categoryS":"movies","magnet":"?xt=urn:btih:37294e528f6c5356839598f6775e954754a1918d&amp;dn=Snitch%282013%29MPEG-4%5BDaScubaDude%5D&amp;tr=udp%3A%2F%2Ftracker.leechers-paradise.org%3A6969&amp;tr=udp%3A%2F%2Fzer0day.ch%3A1337&amp;tr=udp%3A%2F%2Fopen.demonii.com%3A1337&amp;tr=udp%3A%2F%2Ftracker.coppersurfer.tk%3A6969&amp;tr=udp%3A%2F%2Fexodus.desync.com%3A6969","seeders":1,"leechers":0,"uploader":"dascuba","files":1,"time":1469416779,"description":"Snitch (2013)\r\nPG-13 | 1h 52min | Action, Drama, Thriller | 22 February 2013 (USA)\r\nA father goes undercover for the DEA in order to free his son who was imprisoned after being set up in drug deal.\r\nDirector: Ric Roman Waugh\r\nWriters: Justin Haythe, Ric Roman Waugh\r\nStars: Dwayne Johnson, Susan Sarandon, Jon Bernthal | \r\n\r\nGeneral\r\nComplete name                            : SnitchSnitch_Title1.mp4\r\nFormat                                   : MPEG-4\r\nFormat profile                           : Base Media\r\nCodec ID                                 : isom (isom/iso2/avc1/mp41)\r\nFile size                                : 1.12 GiB\r\nDuration                                 : 1h 52mn\r\nOverall bit rate                         : 1 432 Kbps\r\nMovie name                               : Snitch\r\nGenre                                    : Crime\r\nWriting application                      : Lavf54.6.100\r\n\r\nVideo\r\nID                                       : 1\r\nFormat                                   : AVC\r\nFormat/Info                              : Advanced Video Codec\r\nFormat profile                           :   \r\nFormat settings, CABAC                   : No\r\nFormat settings, ReFrames                : 6 frames\r\nCodec ID                                 : avc1\r\nCodec ID/Info                            : Advanced Video Coding\r\nDuration                                 : 1h 52mn\r\nBit rate                                 : 1 191 Kbps\r\nWidth                                    : 720 pixels\r\nHeight                                   : 404 pixels\r\nDisplay aspect ratio                     : 16:9\r\nFrame rate mode                          : Constant\r\nFrame rate                               : 29.970 (30000/1001) fps\r\nColor space                              : YUV\r\nChroma subsampling                       : 4:2:0\r\nBit depth                                : 8 bits\r\nScan type                                : Progressive\r\nBits/(Pixel*Frame)                       : 0.137\r\nStream size                              : 956 MiB (83%)\r\n\r\nAudio\r\nID                                       : 2\r\nFormat                                   : AAC\r\nFormat/Info                              : Advanced Audio Codec\r\nFormat profile                           : LC\r\nCodec ID                                 : 40\r\nDuration                                 : 1h 52mn\r\nBit rate mode                            : Constant\r\nBit rate                                 : 234 Kbps\r\nChannel(s)                               : 2 channels\r\nChannel(s)_Original                      : 6 channels\r\nChannel positions                        : Front: L C R, Side: L R, LFE\r\nSampling rate                            : 44.1 KHz\r\nFrame rate                               : 43.066 fps (1024 spf)\r\nCompression mode                         : Lossy\r\nStream size                              : 188 MiB (16%)\r\nDefault                                  : Yes\r\nAlternate group                          : 1","torrent":{"xt":"urn:btih:37294e528f6c5356839598f6775e954754a1918d","amp;dn":"Snitch%282013%29MPEG-4%5BDaScubaDude%5D","amp;tr":["udp%3A%2F%2Ftracker.leechers-paradise.org%3A6969","udp%3A%2F%2Fzer0day.ch%3A1337","udp%3A%2F%2Fopen.demonii.com%3A1337","udp%3A%2F%2Ftracker.coppersurfer.tk%3A6969","udp%3A%2F%2Fexodus.desync.com%3A6969"],"infoHash":"37294e528f6c5356839598f6775e954754a1918d","infoHashBuffer":{"type":"Buffer","data":[55,41,78,82,143,108,83,86,131,149,152,246,119,94,149,71,84,161,145,141]},"announce":[],"urlList":[]}}